<svg width="116" height="60" viewBox="0 0 116 60" fill="none" xmlns="http://www.w3.org/2000/svg">
<g filter="url(#filter0_d_32183_2)">
<rect x="10" y="8" width="96" height="40" rx="20" fill="#556AEB"/>
<path d="M35.4751 34C39.0206 34 41.0717 31.8011 41.0717 28.1648C41.0717 24.5455 39.0206 22.3636 35.5945 22.3636H31.7081V34H35.4751ZM33.4638 32.4659V23.8977H35.4865C38.032 23.8977 39.3445 25.4205 39.3445 28.1648C39.3445 30.9205 38.032 32.4659 35.3786 32.4659H33.4638ZM46.88 34.1761C48.7834 34.1761 50.13 33.2386 50.5163 31.8182L48.9084 31.5284C48.6016 32.3523 47.8629 32.7727 46.897 32.7727C45.4425 32.7727 44.4652 31.8295 44.4197 30.1477H50.6243V29.5455C50.6243 26.392 48.7379 25.1591 46.7607 25.1591C44.3288 25.1591 42.7266 27.0114 42.7266 29.6932C42.7266 32.4034 44.3061 34.1761 46.88 34.1761ZM44.4254 28.875C44.4936 27.6364 45.3913 26.5625 46.772 26.5625C48.0902 26.5625 48.9538 27.5398 48.9595 28.875H44.4254ZM56.6626 25.2727H54.782V24.4886C54.782 23.7159 55.1001 23.2955 55.9297 23.2955C56.282 23.2955 56.532 23.375 56.6911 23.4261L57.0888 22.0511C56.8501 21.9602 56.3558 21.8182 55.6683 21.8182C54.2876 21.8182 53.0774 22.625 53.0774 24.2614V25.2727H51.7308V26.6364H53.0774V34H54.782V26.6364H56.6626V25.2727ZM60.6896 34.1932C62.1328 34.1932 62.9453 33.4602 63.2692 32.8068H63.3374V34H64.9964V28.2045C64.9964 25.6648 62.9964 25.1591 61.6101 25.1591C60.0305 25.1591 58.576 25.7955 58.0078 27.3864L59.6044 27.75C59.8544 27.1307 60.4908 26.5341 61.6328 26.5341C62.7294 26.5341 63.2919 27.108 63.2919 28.0966V28.1364C63.2919 28.7557 62.6555 28.7443 61.0874 28.9261C59.4339 29.1193 57.7408 29.5511 57.7408 31.5341C57.7408 33.25 59.0305 34.1932 60.6896 34.1932ZM61.0589 32.8295C60.0987 32.8295 59.4055 32.3977 59.4055 31.5568C59.4055 30.6477 60.2124 30.3239 61.1953 30.1932C61.7464 30.1193 63.0533 29.9716 63.2976 29.7273V30.8523C63.2976 31.8864 62.4737 32.8295 61.0589 32.8295ZM72.7876 30.3807C72.7933 31.8636 71.6911 32.5682 70.7365 32.5682C69.6854 32.5682 68.9581 31.8068 68.9581 30.6193V25.2727H67.2592V30.8239C67.2592 32.9886 68.4467 34.1136 70.1229 34.1136C71.4354 34.1136 72.3274 33.4205 72.7308 32.4886H72.8217V34H74.4922V25.2727H72.7876V30.3807ZM78.4737 22.3636H76.7749V34H78.4737V22.3636ZM84.8331 25.2727H83.0433V23.1818H81.3445V25.2727H80.0661V26.6364H81.3445V31.7898C81.3388 33.375 82.549 34.142 83.8899 34.1136C84.4297 34.108 84.7933 34.0057 84.9922 33.9318L84.6854 32.5284C84.5717 32.5511 84.3615 32.6023 84.0888 32.6023C83.5376 32.6023 83.0433 32.4205 83.0433 31.4375V26.6364H84.8331V25.2727Z" fill="white"/>
</g>
<defs>
<filter id="filter0_d_32183_2" x="0" y="0" width="116" height="60" filterUnits="userSpaceOnUse" color-interpolation-filters="sRGB">
<feFlood flood-opacity="0" result="BackgroundImageFix"/>
<feColorMatrix in="SourceAlpha" type="matrix" values="0 0 0 0 0 0 0 0 0 0 0 0 0 0 0 0 0 0 127 0" result="hardAlpha"/>
<feOffset dy="2"/>
<feGaussianBlur stdDeviation="5"/>
<feColorMatrix type="matrix" values="0 0 0 0 0.129412 0 0 0 0 0.145098 0 0 0 0 0.160784 0 0 0 0.15 0"/>
<feBlend mode="normal" in2="BackgroundImageFix" result="effect1_dropShadow_32183_2"/>
<feBlend mode="normal" in="SourceGraphic" in2="effect1_dropShadow_32183_2" result="shape"/>
</filter>
</defs>
</svg>
