<svg width="96" height="75" viewBox="0 0 96 75" fill="none" xmlns="http://www.w3.org/2000/svg">
<path d="M32.3389 51.4619H33.1079C34.1479 51.4619 34.8877 51.3374 35.3271 51.0884C35.7666 50.8247 36.0742 50.3486 36.25 49.6602C36.3818 49.2061 36.4697 47.5581 36.5137 44.7163C36.5723 41.8745 36.6016 37.4507 36.6016 31.4448V24.4355H32.1631C30.0098 24.4355 28.5522 24.7285 27.7905 25.3145C27.0435 25.8857 26.4868 27.1016 26.1206 28.9619L24.6924 28.6543C24.9707 27.3799 25.1831 26.1274 25.3296 24.897C25.4761 23.6665 25.5493 22.458 25.5493 21.2715C25.9888 21.5498 26.875 21.7476 28.208 21.8647C29.5557 21.9819 31.9067 22.0405 35.2612 22.0405H40.6226C45.0757 22.0405 47.9395 21.9893 49.2139 21.8867C50.5029 21.7695 51.4038 21.5645 51.9165 21.2715C51.9165 21.418 51.9092 21.6523 51.8945 21.9746C51.8799 22.2822 51.8726 22.5166 51.8726 22.6777C51.8726 23.6006 51.9092 24.5527 51.9824 25.5342C52.0703 26.5156 52.1948 27.5264 52.356 28.5664L50.9717 28.8301C50.7959 27.1748 50.3418 26.0469 49.6094 25.4463C48.8916 24.8457 47.3682 24.5088 45.0391 24.4355H40.8862C40.8716 25.2705 40.8569 26.4497 40.8423 27.9731C40.813 31.9722 40.7983 34.6602 40.7983 36.0371C40.7983 41.2373 40.8276 44.7603 40.8862 46.606C40.9595 48.4517 41.0767 49.6016 41.2378 50.0557C41.4282 50.583 41.7432 50.9492 42.1826 51.1543C42.6221 51.3594 43.2959 51.4619 44.2041 51.4619H44.9731V53C43.7573 52.9414 42.6074 52.8975 41.5234 52.8682C40.4541 52.8389 39.4946 52.8242 38.645 52.8242C37.8979 52.8242 36.9751 52.8389 35.8765 52.8682C34.7925 52.8975 33.6133 52.9414 32.3389 53V51.4619Z" fill="black"/>
<path d="M60.9214 27.27L62.3716 27.7095C62.2837 28.5151 62.2104 29.2402 62.1519 29.8848C62.1079 30.5146 62.0786 31.1372 62.064 31.7524H63.624C64.459 31.7524 65.3086 31.7451 66.1729 31.7305C67.0371 31.7012 67.9087 31.6646 68.7876 31.6206L68.2603 34.0156C67.3228 33.9424 66.4365 33.8984 65.6016 33.8838C64.7812 33.8545 63.9609 33.8398 63.1406 33.8398H62.1079C62.02 36.3594 61.9541 38.293 61.9102 39.6406C61.8809 40.9736 61.8662 42.0796 61.8662 42.9585C61.8662 46.269 62.0933 48.4297 62.5474 49.4404C63.0015 50.4365 63.8145 50.9346 64.9863 50.9346C65.4697 50.9346 66.0044 50.832 66.5903 50.627C67.1909 50.4219 67.916 50.085 68.7656 49.6162L69.4907 51.0664C68.0845 51.916 66.8101 52.5605 65.6675 53C64.5249 53.4248 63.5288 53.6372 62.6792 53.6372C61.1118 53.6372 59.9692 53.1025 59.2515 52.0332C58.5337 50.9492 58.1748 49.2134 58.1748 46.8257C58.1748 46.3569 58.2041 44.687 58.2627 41.8159C58.3359 38.9302 58.3726 36.2861 58.3726 33.8838C58.2407 33.8838 58.0503 33.8911 57.8013 33.9058C56.5854 33.9497 55.7505 33.9717 55.2964 33.9717V32.3896C56.7319 32.1846 57.9185 31.6572 58.856 30.8076C59.7935 29.9434 60.4819 28.7642 60.9214 27.27Z" fill="black"/>
</svg>
